<svg width="30" height="30" viewBox="0 0 30 30" fill="none" xmlns="http://www.w3.org/2000/svg">
<g id="vuesax/linear/eye">
<g id="eye">
<path id="Vector" d="M19.4754 14.9999C19.4754 17.4749 17.4754 19.4749 15.0004 19.4749C12.5254 19.4749 10.5254 17.4749 10.5254 14.9999C10.5254 12.5249 12.5254 10.5249 15.0004 10.5249C17.4754 10.5249 19.4754 12.5249 19.4754 14.9999Z" stroke="#43454D" stroke-width="1.5" stroke-linecap="round" stroke-linejoin="round"/>
<path id="Vector_2" d="M14.9998 25.3374C19.4123 25.3374 23.5248 22.7374 26.3873 18.2374C27.5123 16.4749 27.5123 13.5124 26.3873 11.7499C23.5248 7.2499 19.4123 4.6499 14.9998 4.6499C10.5873 4.6499 6.4748 7.2499 3.6123 11.7499C2.4873 13.5124 2.4873 16.4749 3.6123 18.2374C6.4748 22.7374 10.5873 25.3374 14.9998 25.3374Z" stroke="#43454D" stroke-width="1.5" stroke-linecap="round" stroke-linejoin="round"/>
</g>
</g>
</svg>
