<svg xmlns="http://www.w3.org/2000/svg" width="40" height="40" viewBox="0 0 40 40" fill="none">
    <path d="M28.1642 3.2876H23.8897C18.6289 3.2876 15.3408 6.57564 15.3408 11.8365V18.4948H25.616C26.29 18.4948 26.849 19.0538 26.849 19.7278C26.849 20.4019 26.29 20.9608 25.616 20.9608H15.3408V27.6191C15.3408 32.88 18.6289 36.168 23.8897 36.168H28.1478C33.4086 36.168 36.6967 32.88 36.6967 27.6191V11.8365C36.7131 6.57564 33.4251 3.2876 28.1642 3.2876Z" fill="#43454D"/>
    <path d="M8.04248 18.4946L11.4456 15.0914C11.6922 14.8448 11.8073 14.5325 11.8073 14.2201C11.8073 13.9078 11.6922 13.5789 11.4456 13.3488C10.9688 12.872 10.1797 12.872 9.70294 13.3488L4.19547 18.8563C3.7187 19.333 3.7187 20.1222 4.19547 20.5989L9.70294 26.1064C10.1797 26.5832 10.9688 26.5832 11.4456 26.1064C11.9224 25.6296 11.9224 24.8405 11.4456 24.3637L8.04248 20.9606H15.3419V18.4946H8.04248Z" fill="#43454D"/>
</svg>