<svg width="30" height="30" viewBox="0 0 30 30" fill="none" xmlns="http://www.w3.org/2000/svg">
<g id="vuesax/linear/messages">
<g id="messages">
<g id="Group">
<path id="Vector" d="M22.475 13.4875V18.4875C22.475 18.8125 22.4625 19.125 22.425 19.425C22.1375 22.8 20.15 24.475 16.4875 24.475H15.9875C15.675 24.475 15.375 24.625 15.1875 24.875L13.6875 26.875C13.025 27.7625 11.95 27.7625 11.2875 26.875L9.78748 24.875C9.62498 24.6625 9.2625 24.475 8.9875 24.475H8.48751C4.50001 24.475 2.5 23.4875 2.5 18.4875V13.4875C2.5 9.82501 4.18751 7.83751 7.55001 7.55001C7.85001 7.51251 8.16251 7.5 8.48751 7.5H16.4875C20.475 7.5 22.475 9.50001 22.475 13.4875Z" stroke="#43454D" stroke-width="1.5" stroke-miterlimit="10" stroke-linecap="round" stroke-linejoin="round"/>
</g>
<path id="Vector_2" d="M27.4748 8.48751V13.4875C27.4748 17.1625 25.7873 19.1375 22.4248 19.425C22.4623 19.125 22.4748 18.8125 22.4748 18.4875V13.4875C22.4748 9.50001 20.4748 7.5 16.4873 7.5H8.4873C8.1623 7.5 7.8498 7.51251 7.5498 7.55001C7.8373 4.18751 9.8248 2.5 13.4873 2.5H21.4873C25.4748 2.5 27.4748 4.50001 27.4748 8.48751Z" stroke="#43454D" stroke-width="1.5" stroke-miterlimit="10" stroke-linecap="round" stroke-linejoin="round"/>
<path id="Vector_3" d="M16.8694 16.5625H16.8806" stroke="#43454D" stroke-width="2" stroke-linecap="round" stroke-linejoin="round"/>
<path id="Vector_4" d="M12.4944 16.5625H12.5056" stroke="#43454D" stroke-width="2" stroke-linecap="round" stroke-linejoin="round"/>
<path id="Vector_5" d="M8.11937 16.5625H8.13062" stroke="#43454D" stroke-width="2" stroke-linecap="round" stroke-linejoin="round"/>
</g>
</g>
</svg>
