<svg width="30" height="30" viewBox="0 0 30 30" fill="none" xmlns="http://www.w3.org/2000/svg">
<g id="vuesax/linear/notification">
<g id="notification">
<path id="Vector" d="M15.0252 3.6377C10.8877 3.6377 7.52523 7.0002 7.52523 11.1377V14.7502C7.52523 15.5127 7.20023 16.6752 6.81273 17.3252L5.37523 19.7127C4.48773 21.1877 5.10023 22.8252 6.72523 23.3752C12.1127 25.1752 17.9252 25.1752 23.3127 23.3752C24.8252 22.8752 25.4877 21.0877 24.6627 19.7127L23.2252 17.3252C22.8502 16.6752 22.5252 15.5127 22.5252 14.7502V11.1377C22.5252 7.0127 19.1502 3.6377 15.0252 3.6377Z" stroke="var(--theme-primary)" stroke-width="1.5" stroke-miterlimit="10" stroke-linecap="round"/>
<path id="Vector_2" d="M17.3379 3.9998C16.9504 3.8873 16.5504 3.7998 16.1379 3.7498C14.9379 3.5998 13.7879 3.6873 12.7129 3.9998C13.0754 3.0748 13.9754 2.4248 15.0254 2.4248C16.0754 2.4248 16.9754 3.0748 17.3379 3.9998Z" stroke="var(--theme-primary)" stroke-width="1.5" stroke-miterlimit="10" stroke-linecap="round" stroke-linejoin="round"/>
<path id="Vector_3" d="M18.7754 23.8252C18.7754 25.8877 17.0879 27.5752 15.0254 27.5752C14.0004 27.5752 13.0504 27.1502 12.3754 26.4752C11.7004 25.8002 11.2754 24.8502 11.2754 23.8252" stroke="var(--theme-primary)" stroke-width="1.5" stroke-miterlimit="10"/>
</g>
</g>
</svg>
